<svg width="24" height="24" viewBox="0 0 24 24" fill="none" xmlns="http://www.w3.org/2000/svg">
<g id="&#208;&#152;&#208;&#186;&#208;&#190;&#208;&#189;&#208;&#186;&#208;&#184;/&#208;&#159;&#208;&#190;&#208;&#188;&#208;&#190;&#209;&#137;&#209;&#140;">
<path id="Vector" d="M12 22C17.5228 22 22 17.5228 22 12C22 6.47715 17.5228 2 12 2C6.47715 2 2 6.47715 2 12C2 17.5228 6.47715 22 12 22Z" stroke="#181744" stroke-width="2" stroke-linecap="round" stroke-linejoin="round"/>
<path id="Vector_2" d="M9.09003 8.99996C9.32513 8.33163 9.78918 7.76807 10.4 7.40909C11.0108 7.05012 11.7289 6.9189 12.4272 7.03867C13.1255 7.15844 13.7588 7.52148 14.2151 8.06349C14.6714 8.60549 14.9211 9.29148 14.92 9.99996C14.92 12 11.92 13 11.92 13" stroke="#181744" stroke-width="2" stroke-linecap="round" stroke-linejoin="round"/>
<path id="Vector 2" d="M12 16V16.5" stroke="#181744" stroke-width="2" stroke-linecap="round" stroke-linejoin="round"/>
</g>
</svg>
