<svg width="24" height="24" viewBox="0 0 24 24" fill="none" xmlns="http://www.w3.org/2000/svg">
<g id="&#208;&#152;&#208;&#186;&#208;&#190;&#208;&#189;&#208;&#186;&#208;&#184;/&#208;&#161;&#208;&#191;&#208;&#184;&#209;&#129;&#208;&#190;&#208;&#186;" clip-path="url(#clip0_693_243)">
<g id="Vector">
<mask id="path-1-inside-1_693_243" fill="white">
<path d="M2.76923 0C1.2476 0 0 1.2476 0 2.76923V21.2308C0 22.7524 1.2476 24 2.76923 24H21.2308C22.7524 24 24 22.7524 24 21.2308V2.76923C24 1.2476 22.7524 0 21.2308 0H2.76923ZM2.76923 1.84615H21.2308C21.75 1.84615 22.1538 2.25 22.1538 2.76923V21.2308C22.1538 21.75 21.75 22.1538 21.2308 22.1538H2.76923C2.25 22.1538 1.84615 21.75 1.84615 21.2308V2.76923C1.84615 2.25 2.25 1.84615 2.76923 1.84615ZM5.53846 5.53846V7.38462H7.38462V5.53846H5.53846ZM9.23077 5.53846V7.38462H18.4615V5.53846H9.23077ZM5.53846 11.0769V12.9231H7.38462V11.0769H5.53846ZM9.23077 11.0769V12.9231H18.4615V11.0769H9.23077ZM5.53846 16.6154V18.4615H7.38462V16.6154H5.53846ZM9.23077 16.6154V18.4615H18.4615V16.6154H9.23077Z"/>
</mask>
<path d="M2.76923 0C1.2476 0 0 1.2476 0 2.76923V21.2308C0 22.7524 1.2476 24 2.76923 24H21.2308C22.7524 24 24 22.7524 24 21.2308V2.76923C24 1.2476 22.7524 0 21.2308 0H2.76923ZM2.76923 1.84615H21.2308C21.75 1.84615 22.1538 2.25 22.1538 2.76923V21.2308C22.1538 21.75 21.75 22.1538 21.2308 22.1538H2.76923C2.25 22.1538 1.84615 21.75 1.84615 21.2308V2.76923C1.84615 2.25 2.25 1.84615 2.76923 1.84615ZM5.53846 5.53846V7.38462H7.38462V5.53846H5.53846ZM9.23077 5.53846V7.38462H18.4615V5.53846H9.23077ZM5.53846 11.0769V12.9231H7.38462V11.0769H5.53846ZM9.23077 11.0769V12.9231H18.4615V11.0769H9.23077ZM5.53846 16.6154V18.4615H7.38462V16.6154H5.53846ZM9.23077 16.6154V18.4615H18.4615V16.6154H9.23077Z" fill="#181744"/>
<path d="M5.53846 5.53846V3.53846H3.53846V5.53846H5.53846ZM5.53846 7.38462H3.53846V9.38461H5.53846V7.38462ZM7.38462 7.38462V9.38461H9.38461V7.38462H7.38462ZM7.38462 5.53846H9.38461V3.53846H7.38462V5.53846ZM9.23077 5.53846V3.53846H7.23077V5.53846H9.23077ZM9.23077 7.38462H7.23077V9.38461H9.23077V7.38462ZM18.4615 7.38462V9.38461H20.4615V7.38462H18.4615ZM18.4615 5.53846H20.4615V3.53846H18.4615V5.53846ZM5.53846 11.0769V9.07692H3.53846V11.0769H5.53846ZM5.53846 12.9231H3.53846V14.9231H5.53846V12.9231ZM7.38462 12.9231V14.9231H9.38461V12.9231H7.38462ZM7.38462 11.0769H9.38461V9.07692H7.38462V11.0769ZM9.23077 11.0769V9.07692H7.23077V11.0769H9.23077ZM9.23077 12.9231H7.23077V14.9231H9.23077V12.9231ZM18.4615 12.9231V14.9231H20.4615V12.9231H18.4615ZM18.4615 11.0769H20.4615V9.07692H18.4615V11.0769ZM5.53846 16.6154V14.6154H3.53846V16.6154H5.53846ZM5.53846 18.4615H3.53846V20.4615H5.53846V18.4615ZM7.38462 18.4615V20.4615H9.38461V18.4615H7.38462ZM7.38462 16.6154H9.38461V14.6154H7.38462V16.6154ZM9.23077 16.6154V14.6154H7.23077V16.6154H9.23077ZM9.23077 18.4615H7.23077V20.4615H9.23077V18.4615ZM18.4615 18.4615V20.4615H20.4615V18.4615H18.4615ZM18.4615 16.6154H20.4615V14.6154H18.4615V16.6154ZM2.76923 -2C0.143026 -2 -2 0.143026 -2 2.76923H2C2 2.35217 2.35217 2 2.76923 2V-2ZM-2 2.76923V21.2308H2V2.76923H-2ZM-2 21.2308C-2 23.857 0.143026 26 2.76923 26V22C2.35217 22 2 21.6478 2 21.2308H-2ZM2.76923 26H21.2308V22H2.76923V26ZM21.2308 26C23.857 26 26 23.857 26 21.2308H22C22 21.6478 21.6478 22 21.2308 22V26ZM26 21.2308V2.76923H22V21.2308H26ZM26 2.76923C26 0.143026 23.857 -2 21.2308 -2V2C21.6478 2 22 2.35217 22 2.76923H26ZM21.2308 -2H2.76923V2H21.2308V-2ZM2.76923 3.84615H21.2308V-0.153846H2.76923V3.84615ZM21.2308 3.84615C20.6454 3.84615 20.1538 3.35457 20.1538 2.76923H24.1538C24.1538 1.14543 22.8546 -0.153846 21.2308 -0.153846V3.84615ZM20.1538 2.76923V21.2308H24.1538V2.76923H20.1538ZM20.1538 21.2308C20.1538 20.6454 20.6454 20.1538 21.2308 20.1538V24.1538C22.8546 24.1538 24.1538 22.8546 24.1538 21.2308H20.1538ZM21.2308 20.1538H2.76923V24.1538H21.2308V20.1538ZM2.76923 20.1538C3.35457 20.1538 3.84615 20.6454 3.84615 21.2308H-0.153846C-0.153846 22.8546 1.14543 24.1538 2.76923 24.1538V20.1538ZM3.84615 21.2308V2.76923H-0.153846V21.2308H3.84615ZM3.84615 2.76923C3.84615 3.35457 3.35457 3.84615 2.76923 3.84615V-0.153846C1.14543 -0.153846 -0.153846 1.14543 -0.153846 2.76923H3.84615ZM3.53846 5.53846V7.38462H7.53846V5.53846H3.53846ZM5.53846 9.38461H7.38462V5.38462H5.53846V9.38461ZM9.38461 7.38462V5.53846H5.38462V7.38462H9.38461ZM7.38462 3.53846H5.53846V7.53846H7.38462V3.53846ZM7.23077 5.53846V7.38462H11.2308V5.53846H7.23077ZM9.23077 9.38461H18.4615V5.38462H9.23077V9.38461ZM20.4615 7.38462V5.53846H16.4615V7.38462H20.4615ZM18.4615 3.53846H9.23077V7.53846H18.4615V3.53846ZM3.53846 11.0769V12.9231H7.53846V11.0769H3.53846ZM5.53846 14.9231H7.38462V10.9231H5.53846V14.9231ZM9.38461 12.9231V11.0769H5.38462V12.9231H9.38461ZM7.38462 9.07692H5.53846V13.0769H7.38462V9.07692ZM7.23077 11.0769V12.9231H11.2308V11.0769H7.23077ZM9.23077 14.9231H18.4615V10.9231H9.23077V14.9231ZM20.4615 12.9231V11.0769H16.4615V12.9231H20.4615ZM18.4615 9.07692H9.23077V13.0769H18.4615V9.07692ZM3.53846 16.6154V18.4615H7.53846V16.6154H3.53846ZM5.53846 20.4615H7.38462V16.4615H5.53846V20.4615ZM9.38461 18.4615V16.6154H5.38462V18.4615H9.38461ZM7.38462 14.6154H5.53846V18.6154H7.38462V14.6154ZM7.23077 16.6154V18.4615H11.2308V16.6154H7.23077ZM9.23077 20.4615H18.4615V16.4615H9.23077V20.4615ZM20.4615 18.4615V16.6154H16.4615V18.4615H20.4615ZM18.4615 14.6154H9.23077V18.6154H18.4615V14.6154Z" fill="white" mask="url(#path-1-inside-1_693_243)"/>
</g>
</g>
<defs>
<clipPath id="clip0_693_243">
<rect width="24" height="24" fill="white"/>
</clipPath>
</defs>
</svg>
