<svg width="24" height="24" viewBox="0 0 24 24" fill="none" xmlns="http://www.w3.org/2000/svg">
<g id="&#208;&#152;&#208;&#186;&#208;&#190;&#208;&#189;&#208;&#186;&#208;&#184;/&#208;&#151;&#208;&#178;&#208;&#190;&#208;&#189;&#208;&#190;&#208;&#186;" clip-path="url(#clip0_33_53)">
<path id="Vector" d="M21.6485 16.3663L18.255 15.9788C17.44 15.8853 16.6384 16.1659 16.0639 16.7404L13.6056 19.1986C9.82467 17.2748 6.7251 14.1886 4.80123 10.3943L7.27287 7.92261C7.84736 7.34812 8.12792 6.54651 8.0344 5.73154L7.64696 2.36476C7.48663 1.01538 6.35102 0 4.98827 0H2.67695C1.16725 0 -0.0886137 1.25586 0.00490785 2.76557C0.713 14.1752 9.83803 23.2869 21.2343 23.995C22.744 24.0885 23.9999 22.8326 23.9999 21.3229V19.0116C24.0132 17.6622 22.9979 16.5266 21.6485 16.3663Z" fill="#181744"/>
</g>
<defs>
<clipPath id="clip0_33_53">
<rect width="24" height="24" fill="white"/>
</clipPath>
</defs>
</svg>
