<svg width="20" height="20" viewBox="0 0 20 20" fill="none" xmlns="http://www.w3.org/2000/svg">
<g id="Vector">
<mask id="path-1-inside-1_693_247" fill="white">
<path d="M10 0C6.69531 0 4 2.45028 4 5.45455C4 8.45881 6.69531 10.9091 10 10.9091C13.3047 10.9091 16 8.45881 16 5.45455C16 2.45028 13.3047 0 10 0ZM10 10.9091C4.49219 10.9091 0 14.9929 0 20H2C2 15.973 5.57031 12.7273 10 12.7273C14.4297 12.7273 18 15.973 18 20H20C20 14.9929 15.5078 10.9091 10 10.9091ZM10 1.81818C12.2188 1.81818 14 3.4375 14 5.45455C14 7.47159 12.2188 9.09091 10 9.09091C7.78125 9.09091 6 7.47159 6 5.45455C6 3.4375 7.78125 1.81818 10 1.81818Z"/>
</mask>
<path d="M10 0C6.69531 0 4 2.45028 4 5.45455C4 8.45881 6.69531 10.9091 10 10.9091C13.3047 10.9091 16 8.45881 16 5.45455C16 2.45028 13.3047 0 10 0ZM10 10.9091C4.49219 10.9091 0 14.9929 0 20H2C2 15.973 5.57031 12.7273 10 12.7273C14.4297 12.7273 18 15.973 18 20H20C20 14.9929 15.5078 10.9091 10 10.9091ZM10 1.81818C12.2188 1.81818 14 3.4375 14 5.45455C14 7.47159 12.2188 9.09091 10 9.09091C7.78125 9.09091 6 7.47159 6 5.45455C6 3.4375 7.78125 1.81818 10 1.81818Z" fill="#181744"/>
<path d="M0 20H-2V22H0V20ZM2 20V22H4V20H2ZM18 20H16V22H18V20ZM20 20V22H22V20H20ZM10 -2C5.77439 -2 2 1.1706 2 5.45455H6C6 3.72996 7.61623 2 10 2V-2ZM2 5.45455C2 9.73849 5.77439 12.9091 10 12.9091V8.90909C7.61623 8.90909 6 7.17913 6 5.45455H2ZM10 12.9091C14.2256 12.9091 18 9.73849 18 5.45455H14C14 7.17913 12.3838 8.90909 10 8.90909V12.9091ZM18 5.45455C18 1.1706 14.2256 -2 10 -2V2C12.3838 2 14 3.72996 14 5.45455H18ZM10 8.90909C3.57127 8.90909 -2 13.7132 -2 20H2C2 16.2726 5.41311 12.9091 10 12.9091V8.90909ZM0 22H2V18H0V22ZM4 20C4 17.2527 6.49123 14.7273 10 14.7273V10.7273C4.64939 10.7273 0 14.6933 0 20H4ZM10 14.7273C13.5088 14.7273 16 17.2527 16 20H20C20 14.6933 15.3506 10.7273 10 10.7273V14.7273ZM18 22H20V18H18V22ZM22 20C22 13.7132 16.4287 8.90909 10 8.90909V12.9091C14.5869 12.9091 18 16.2726 18 20H22ZM10 3.81818C11.2978 3.81818 12 4.71718 12 5.45455H16C16 2.15782 13.1397 -0.181818 10 -0.181818V3.81818ZM12 5.45455C12 6.19191 11.2978 7.09091 10 7.09091V11.0909C13.1397 11.0909 16 8.75127 16 5.45455H12ZM10 7.09091C8.70217 7.09091 8 6.19191 8 5.45455H4C4 8.75127 6.86033 11.0909 10 11.0909V7.09091ZM8 5.45455C8 4.71718 8.70217 3.81818 10 3.81818V-0.181818C6.86033 -0.181818 4 2.15782 4 5.45455H8Z" fill="white" mask="url(#path-1-inside-1_693_247)"/>
</g>
</svg>
