<svg width="24" height="24" viewBox="0 0 24 24" fill="none" xmlns="http://www.w3.org/2000/svg">
<g id="&#208;&#152;&#208;&#186;&#208;&#190;&#208;&#189;&#208;&#186;&#208;&#184;/&#208;&#146;&#209;&#128;&#208;&#181;&#208;&#188;&#209;&#143;">
<path id="Vector" d="M12 13.3199V13.6049L12.2451 13.7501L15.8095 15.862L15.5816 16.2358L11.5 13.7868V8.56993H12V13.3199ZM16.8153 3.39907L17.4607 2.6336L21.2947 5.85079L20.6493 6.61627L16.8153 3.39907ZM3.35078 6.60635L2.70573 5.84128L6.5374 2.63434L7.17609 3.39776L3.35078 6.60635ZM3.5 13.0699C3.5 8.37607 7.30614 4.56993 12 4.56993C16.6939 4.56993 20.5 8.37607 20.5 13.0699C20.5 17.7638 16.6939 21.5699 12 21.5699C7.2965 21.5699 3.5 17.7642 3.5 13.0699ZM4.5 13.0699C4.5 17.2161 7.85386 20.5699 12 20.5699C16.1461 20.5699 19.5 17.2161 19.5 13.0699C19.5 8.92379 16.1461 5.56993 12 5.56993C7.85386 5.56993 4.5 8.92379 4.5 13.0699Z" fill="#181744" stroke="white"/>
</g>
</svg>
