<svg width="24" height="25" viewBox="0 0 24 25" fill="none" xmlns="http://www.w3.org/2000/svg">
<path id="Vector" d="M22.2857 14.2143H13.7143V22.7857C13.7143 23.7286 12.9429 24.5 12 24.5C11.0571 24.5 10.2857 23.7286 10.2857 22.7857V14.2143H1.71429C0.771429 14.2143 0 13.4429 0 12.5C0 11.5571 0.771429 10.7857 1.71429 10.7857H10.2857V2.21429C10.2857 1.27143 11.0571 0.5 12 0.5C12.9429 0.5 13.7143 1.27143 13.7143 2.21429V10.7857H22.2857C23.2286 10.7857 24 11.5571 24 12.5C24 13.4429 23.2286 14.2143 22.2857 14.2143Z" fill="white"/>
</svg>
