<svg width="18" height="19" viewBox="0 0 18 19" fill="none" xmlns="http://www.w3.org/2000/svg">
<g id="&#208;&#152;&#208;&#186;&#208;&#190;&#208;&#189;&#208;&#186;&#208;&#184;/&#208;&#146;&#208;&#189;&#208;&#184;&#208;&#188;&#208;&#176;&#208;&#189;&#208;&#184;&#208;&#181;">
<path id="Vector" d="M9 5.75C9.4125 5.75 9.75 6.0875 9.75 6.5V9.5C9.75 9.9125 9.4125 10.25 9 10.25C8.5875 10.25 8.25 9.9125 8.25 9.5V6.5C8.25 6.0875 8.5875 5.75 9 5.75ZM8.9925 2C4.8525 2 1.5 5.36 1.5 9.5C1.5 13.64 4.8525 17 8.9925 17C13.14 17 16.5 13.64 16.5 9.5C16.5 5.36 13.14 2 8.9925 2ZM9 15.5C5.685 15.5 3 12.815 3 9.5C3 6.185 5.685 3.5 9 3.5C12.315 3.5 15 6.185 15 9.5C15 12.815 12.315 15.5 9 15.5ZM9.75 13.25H8.25V11.75H9.75V13.25Z" fill="#8AA1B6"/>
</g>
</svg>
